<mxfile host="Electron" agent="Mozilla/5.0 (Windows NT 10.0; Win64; x64) AppleWebKit/537.36 (KHTML, like Gecko) draw.io/28.1.2 Chrome/138.0.7204.243 Electron/37.4.0 Safari/537.36" version="28.1.2">
  <diagram name="第 1 页" id="lpf4DzojsoYpxmaId6u5">
    <mxGraphModel dx="786" dy="610" grid="1" gridSize="10" guides="1" tooltips="1" connect="1" arrows="1" fold="1" page="1" pageScale="1" pageWidth="827" pageHeight="1169" math="0" shadow="0">
      <root>
        <mxCell id="0" />
        <mxCell id="1" parent="0" />
        <mxCell id="sOmynEeHiRWaCo1nHPpW-6" style="edgeStyle=orthogonalEdgeStyle;rounded=0;orthogonalLoop=1;jettySize=auto;html=1;exitX=1;exitY=0.5;exitDx=0;exitDy=0;entryX=0;entryY=0.5;entryDx=0;entryDy=0;fontFamily=MSans;fontSize=17;" edge="1" parent="1" source="sOmynEeHiRWaCo1nHPpW-1" target="sOmynEeHiRWaCo1nHPpW-3">
          <mxGeometry relative="1" as="geometry" />
        </mxCell>
        <mxCell id="sOmynEeHiRWaCo1nHPpW-7" style="edgeStyle=orthogonalEdgeStyle;rounded=0;orthogonalLoop=1;jettySize=auto;html=1;exitX=1;exitY=0.5;exitDx=0;exitDy=0;entryX=0;entryY=0.5;entryDx=0;entryDy=0;fontFamily=MSans;fontSize=17;" edge="1" parent="1" source="sOmynEeHiRWaCo1nHPpW-1" target="sOmynEeHiRWaCo1nHPpW-2">
          <mxGeometry relative="1" as="geometry" />
        </mxCell>
        <mxCell id="sOmynEeHiRWaCo1nHPpW-8" style="edgeStyle=orthogonalEdgeStyle;rounded=0;orthogonalLoop=1;jettySize=auto;html=1;exitX=1;exitY=0.5;exitDx=0;exitDy=0;entryX=0;entryY=0.5;entryDx=0;entryDy=0;fontFamily=MSans;fontSize=17;" edge="1" parent="1" source="sOmynEeHiRWaCo1nHPpW-1" target="sOmynEeHiRWaCo1nHPpW-4">
          <mxGeometry relative="1" as="geometry" />
        </mxCell>
        <mxCell id="sOmynEeHiRWaCo1nHPpW-9" style="edgeStyle=orthogonalEdgeStyle;rounded=0;orthogonalLoop=1;jettySize=auto;html=1;exitX=1;exitY=0.5;exitDx=0;exitDy=0;entryX=0;entryY=0.5;entryDx=0;entryDy=0;fontFamily=MSans;fontSize=17;" edge="1" parent="1" source="sOmynEeHiRWaCo1nHPpW-1" target="sOmynEeHiRWaCo1nHPpW-5">
          <mxGeometry relative="1" as="geometry" />
        </mxCell>
        <mxCell id="sOmynEeHiRWaCo1nHPpW-1" value="项目结构" style="rounded=0;whiteSpace=wrap;html=1;fontFamily=MSans;fontSize=17;" vertex="1" parent="1">
          <mxGeometry x="30" y="290" width="120" height="60" as="geometry" />
        </mxCell>
        <mxCell id="sOmynEeHiRWaCo1nHPpW-33" style="edgeStyle=orthogonalEdgeStyle;rounded=0;orthogonalLoop=1;jettySize=auto;html=1;exitX=1;exitY=0.5;exitDx=0;exitDy=0;entryX=0;entryY=0.5;entryDx=0;entryDy=0;" edge="1" parent="1" source="sOmynEeHiRWaCo1nHPpW-2" target="sOmynEeHiRWaCo1nHPpW-25">
          <mxGeometry relative="1" as="geometry" />
        </mxCell>
        <mxCell id="sOmynEeHiRWaCo1nHPpW-2" value="社交" style="rounded=0;whiteSpace=wrap;html=1;fontFamily=MSans;fontSize=17;" vertex="1" parent="1">
          <mxGeometry x="230" y="235" width="120" height="60" as="geometry" />
        </mxCell>
        <mxCell id="sOmynEeHiRWaCo1nHPpW-22" style="edgeStyle=orthogonalEdgeStyle;rounded=0;orthogonalLoop=1;jettySize=auto;html=1;exitX=1;exitY=0.5;exitDx=0;exitDy=0;entryX=0;entryY=0.5;entryDx=0;entryDy=0;" edge="1" parent="1" source="sOmynEeHiRWaCo1nHPpW-3" target="sOmynEeHiRWaCo1nHPpW-18">
          <mxGeometry relative="1" as="geometry" />
        </mxCell>
        <mxCell id="sOmynEeHiRWaCo1nHPpW-3" value="后台" style="rounded=0;whiteSpace=wrap;html=1;fontFamily=MSans;fontSize=17;" vertex="1" parent="1">
          <mxGeometry x="230" y="125" width="120" height="60" as="geometry" />
        </mxCell>
        <mxCell id="sOmynEeHiRWaCo1nHPpW-34" style="edgeStyle=orthogonalEdgeStyle;rounded=0;orthogonalLoop=1;jettySize=auto;html=1;exitX=1;exitY=0.5;exitDx=0;exitDy=0;entryX=0;entryY=0.5;entryDx=0;entryDy=0;" edge="1" parent="1" source="sOmynEeHiRWaCo1nHPpW-4" target="sOmynEeHiRWaCo1nHPpW-29">
          <mxGeometry relative="1" as="geometry" />
        </mxCell>
        <mxCell id="sOmynEeHiRWaCo1nHPpW-4" value="班级" style="rounded=0;whiteSpace=wrap;html=1;fontFamily=MSans;fontSize=17;" vertex="1" parent="1">
          <mxGeometry x="230" y="345" width="120" height="60" as="geometry" />
        </mxCell>
        <mxCell id="sOmynEeHiRWaCo1nHPpW-16" style="edgeStyle=orthogonalEdgeStyle;rounded=0;orthogonalLoop=1;jettySize=auto;html=1;exitX=1;exitY=0.5;exitDx=0;exitDy=0;entryX=0;entryY=0.5;entryDx=0;entryDy=0;" edge="1" parent="1" source="sOmynEeHiRWaCo1nHPpW-5" target="sOmynEeHiRWaCo1nHPpW-12">
          <mxGeometry relative="1" as="geometry" />
        </mxCell>
        <mxCell id="sOmynEeHiRWaCo1nHPpW-5" value="刷题" style="rounded=0;whiteSpace=wrap;html=1;fontFamily=MSans;fontSize=17;" vertex="1" parent="1">
          <mxGeometry x="230" y="455" width="120" height="60" as="geometry" />
        </mxCell>
        <mxCell id="sOmynEeHiRWaCo1nHPpW-12" value="List" style="swimlane;fontStyle=0;childLayout=stackLayout;horizontal=1;startSize=30;horizontalStack=0;resizeParent=1;resizeParentMax=0;resizeLast=0;collapsible=1;marginBottom=0;whiteSpace=wrap;html=1;" vertex="1" collapsed="1" parent="1">
          <mxGeometry x="400" y="470" width="60" height="30" as="geometry">
            <mxRectangle x="400" y="470" width="140" height="150" as="alternateBounds" />
          </mxGeometry>
        </mxCell>
        <mxCell id="sOmynEeHiRWaCo1nHPpW-13" value="- 获取题目列表" style="text;strokeColor=none;fillColor=none;align=left;verticalAlign=middle;spacingLeft=4;spacingRight=4;overflow=hidden;points=[[0,0.5],[1,0.5]];portConstraint=eastwest;rotatable=0;whiteSpace=wrap;html=1;" vertex="1" parent="sOmynEeHiRWaCo1nHPpW-12">
          <mxGeometry y="30" width="140" height="30" as="geometry" />
        </mxCell>
        <mxCell id="sOmynEeHiRWaCo1nHPpW-14" value="- 搜索题目（题目id，模糊匹配）" style="text;strokeColor=none;fillColor=none;align=left;verticalAlign=middle;spacingLeft=4;spacingRight=4;overflow=hidden;points=[[0,0.5],[1,0.5]];portConstraint=eastwest;rotatable=0;whiteSpace=wrap;html=1;" vertex="1" parent="sOmynEeHiRWaCo1nHPpW-12">
          <mxGeometry y="60" width="140" height="30" as="geometry" />
        </mxCell>
        <mxCell id="sOmynEeHiRWaCo1nHPpW-15" value="- 获取题目详细信息" style="text;strokeColor=none;fillColor=none;align=left;verticalAlign=middle;spacingLeft=4;spacingRight=4;overflow=hidden;points=[[0,0.5],[1,0.5]];portConstraint=eastwest;rotatable=0;whiteSpace=wrap;html=1;" vertex="1" parent="sOmynEeHiRWaCo1nHPpW-12">
          <mxGeometry y="90" width="140" height="30" as="geometry" />
        </mxCell>
        <mxCell id="sOmynEeHiRWaCo1nHPpW-17" value="- 提交评测" style="text;strokeColor=none;fillColor=none;align=left;verticalAlign=middle;spacingLeft=4;spacingRight=4;overflow=hidden;points=[[0,0.5],[1,0.5]];portConstraint=eastwest;rotatable=0;whiteSpace=wrap;html=1;" vertex="1" parent="sOmynEeHiRWaCo1nHPpW-12">
          <mxGeometry y="120" width="140" height="30" as="geometry" />
        </mxCell>
        <mxCell id="sOmynEeHiRWaCo1nHPpW-18" value="List" style="swimlane;fontStyle=0;childLayout=stackLayout;horizontal=1;startSize=30;horizontalStack=0;resizeParent=1;resizeParentMax=0;resizeLast=0;collapsible=1;marginBottom=0;whiteSpace=wrap;html=1;" vertex="1" collapsed="1" parent="1">
          <mxGeometry x="400" y="140" width="60" height="30" as="geometry">
            <mxRectangle x="414" y="140" width="140" height="60" as="alternateBounds" />
          </mxGeometry>
        </mxCell>
        <mxCell id="sOmynEeHiRWaCo1nHPpW-19" value="- 用户，话题，题目，班级的crud" style="text;strokeColor=none;fillColor=none;align=left;verticalAlign=middle;spacingLeft=4;spacingRight=4;overflow=hidden;points=[[0,0.5],[1,0.5]];portConstraint=eastwest;rotatable=0;whiteSpace=wrap;html=1;" vertex="1" parent="sOmynEeHiRWaCo1nHPpW-18">
          <mxGeometry y="30" width="140" height="30" as="geometry" />
        </mxCell>
        <mxCell id="sOmynEeHiRWaCo1nHPpW-25" value="List" style="swimlane;fontStyle=0;childLayout=stackLayout;horizontal=1;startSize=30;horizontalStack=0;resizeParent=1;resizeParentMax=0;resizeLast=0;collapsible=1;marginBottom=0;whiteSpace=wrap;html=1;" vertex="1" collapsed="1" parent="1">
          <mxGeometry x="400" y="250" width="60" height="30" as="geometry">
            <mxRectangle x="350" y="260" width="140" height="120" as="alternateBounds" />
          </mxGeometry>
        </mxCell>
        <mxCell id="sOmynEeHiRWaCo1nHPpW-26" value="Item 1" style="text;strokeColor=none;fillColor=none;align=left;verticalAlign=middle;spacingLeft=4;spacingRight=4;overflow=hidden;points=[[0,0.5],[1,0.5]];portConstraint=eastwest;rotatable=0;whiteSpace=wrap;html=1;" vertex="1" parent="sOmynEeHiRWaCo1nHPpW-25">
          <mxGeometry y="30" width="140" height="30" as="geometry" />
        </mxCell>
        <mxCell id="sOmynEeHiRWaCo1nHPpW-27" value="Item 2" style="text;strokeColor=none;fillColor=none;align=left;verticalAlign=middle;spacingLeft=4;spacingRight=4;overflow=hidden;points=[[0,0.5],[1,0.5]];portConstraint=eastwest;rotatable=0;whiteSpace=wrap;html=1;" vertex="1" parent="sOmynEeHiRWaCo1nHPpW-25">
          <mxGeometry y="60" width="140" height="30" as="geometry" />
        </mxCell>
        <mxCell id="sOmynEeHiRWaCo1nHPpW-28" value="Item 3" style="text;strokeColor=none;fillColor=none;align=left;verticalAlign=middle;spacingLeft=4;spacingRight=4;overflow=hidden;points=[[0,0.5],[1,0.5]];portConstraint=eastwest;rotatable=0;whiteSpace=wrap;html=1;" vertex="1" parent="sOmynEeHiRWaCo1nHPpW-25">
          <mxGeometry y="90" width="140" height="30" as="geometry" />
        </mxCell>
        <mxCell id="sOmynEeHiRWaCo1nHPpW-29" value="List" style="swimlane;fontStyle=0;childLayout=stackLayout;horizontal=1;startSize=30;horizontalStack=0;resizeParent=1;resizeParentMax=0;resizeLast=0;collapsible=1;marginBottom=0;whiteSpace=wrap;html=1;" vertex="1" collapsed="1" parent="1">
          <mxGeometry x="400" y="360" width="60" height="30" as="geometry">
            <mxRectangle x="350" y="260" width="140" height="120" as="alternateBounds" />
          </mxGeometry>
        </mxCell>
        <mxCell id="sOmynEeHiRWaCo1nHPpW-30" value="Item 1" style="text;strokeColor=none;fillColor=none;align=left;verticalAlign=middle;spacingLeft=4;spacingRight=4;overflow=hidden;points=[[0,0.5],[1,0.5]];portConstraint=eastwest;rotatable=0;whiteSpace=wrap;html=1;" vertex="1" parent="sOmynEeHiRWaCo1nHPpW-29">
          <mxGeometry y="30" width="140" height="30" as="geometry" />
        </mxCell>
        <mxCell id="sOmynEeHiRWaCo1nHPpW-31" value="Item 2" style="text;strokeColor=none;fillColor=none;align=left;verticalAlign=middle;spacingLeft=4;spacingRight=4;overflow=hidden;points=[[0,0.5],[1,0.5]];portConstraint=eastwest;rotatable=0;whiteSpace=wrap;html=1;" vertex="1" parent="sOmynEeHiRWaCo1nHPpW-29">
          <mxGeometry y="60" width="140" height="30" as="geometry" />
        </mxCell>
        <mxCell id="sOmynEeHiRWaCo1nHPpW-32" value="Item 3" style="text;strokeColor=none;fillColor=none;align=left;verticalAlign=middle;spacingLeft=4;spacingRight=4;overflow=hidden;points=[[0,0.5],[1,0.5]];portConstraint=eastwest;rotatable=0;whiteSpace=wrap;html=1;" vertex="1" parent="sOmynEeHiRWaCo1nHPpW-29">
          <mxGeometry y="90" width="140" height="30" as="geometry" />
        </mxCell>
      </root>
    </mxGraphModel>
  </diagram>
</mxfile>
